<svg width="20" height="18" viewBox="0 0 20 18" fill="none" xmlns="http://www.w3.org/2000/svg">
<path opacity="0.01" fill-rule="evenodd" clip-rule="evenodd" d="M14.5004 0C12.7603 0 11.0898 0.794551 10.0002 2.05014C8.90972 0.794551 7.23968 0 5.50014 0C2.42006 0 0 2.37384 0 5.3951C0 9.103 3.40009 12.1243 8.54971 16.715L10.0002 18L11.4498 16.7052C16.5999 12.1243 20 9.103 20 5.3951C20 2.37384 17.5799 0 14.5004 0ZM10.0998 15.2534L10.0002 15.3515L9.89975 15.2534C5.13963 11.0256 2.00005 8.22997 2.00005 5.3951C2.00005 3.43324 3.50009 1.96185 5.50014 1.96185C7.03968 1.96185 8.53971 2.93297 9.07023 4.27684H10.9398C11.4598 2.93297 12.9598 1.96185 14.5004 1.96185C16.5004 1.96185 18.0005 3.43324 18.0005 5.3951C18.0005 8.22997 14.8599 11.0256 10.0998 15.2534Z" fill="#BDBDBD"/>
</svg>
