<svg width="24" height="17" viewBox="0 0 24 17" fill="none" xmlns="http://www.w3.org/2000/svg">
<path fill-rule="evenodd" clip-rule="evenodd" d="M11.8918 0.540527C18.693 0.540527 22.6614 6.566 23.7296 8.43242C22.6654 10.3077 18.7164 16.3243 11.8918 16.3243C5.06723 16.3243 1.12725 10.3042 0.0539551 8.43242C1.12715 6.55716 5.09383 0.540527 11.8918 0.540527ZM7.05413 8.47336C7.05413 6.47765 8.25525 4.68016 10.098 3.91565C11.9426 3.153 14.0642 3.57463 15.4736 4.98576C16.8847 6.39517 17.3064 8.51688 16.5437 10.3614C15.7794 12.2043 13.9819 13.4054 11.9861 13.4054C10.6774 13.4071 9.42261 12.888 8.49698 11.9623C7.57139 11.0367 7.05228 9.78184 7.05396 8.47319L7.05413 8.47336Z" fill="black"/>
</svg>
