<svg width="26" height="26" viewBox="0 0 26 26" fill="none" xmlns="http://www.w3.org/2000/svg">
<path fill-rule="evenodd" clip-rule="evenodd" d="M17.4077 16.3527H18.582L26 23.785L23.785 26L16.3522 18.5826V17.4082L15.9508 16.9912C14.2561 18.4488 12.056 19.3251 9.66266 19.3251C4.3259 19.3251 0 14.9999 0 9.66294C0 4.32602 4.3259 0 9.66266 0C14.9994 0 19.3253 4.32602 19.3253 9.66294C19.3253 12.0564 18.4483 14.2566 16.9914 15.9513L17.4077 16.3527ZM2.97313 9.66294C2.97313 13.3646 5.96112 16.3527 9.66266 16.3527C13.3642 16.3527 16.3522 13.3646 16.3522 9.66294C16.3522 5.96129 13.3642 2.97321 9.66266 2.97321C5.96112 2.97321 2.97313 5.96129 2.97313 9.66294Z" fill="#3B3B3B"/>
</svg>
