<svg width="24" height="17" viewBox="0 0 24 17" fill="none" xmlns="http://www.w3.org/2000/svg">
<path fill-rule="evenodd" clip-rule="evenodd" d="M11.8919 0.540527C18.6931 0.540527 22.6615 6.566 23.7297 8.43242C22.6655 10.3077 18.7165 16.3243 11.8919 16.3243C5.06733 16.3243 1.12734 10.3042 0.0540543 8.43242C1.12725 6.55716 5.09393 0.540527 11.8919 0.540527ZM7.05423 8.47336C7.05423 6.47765 8.25535 4.68016 10.0981 3.91565C11.9427 3.153 14.0643 3.57463 15.4737 4.98576C16.8848 6.39517 17.3064 8.51688 16.5438 10.3614C15.7795 12.2043 13.982 13.4054 11.9862 13.4054C10.6775 13.4071 9.42271 12.888 8.49708 11.9623C7.57149 11.0367 7.05238 9.78184 7.05406 8.47319L7.05423 8.47336Z" fill="black"/>
</svg>
