<svg width="24" height="17" viewBox="0 0 24 17" fill="none" xmlns="http://www.w3.org/2000/svg">
<path fill-rule="evenodd" clip-rule="evenodd" d="M11.8919 0.540527C18.6931 0.540527 22.6615 6.566 23.7298 8.43242C22.6655 10.3077 18.7165 16.3243 11.8919 16.3243C5.06735 16.3243 1.12737 10.3042 0.0540771 8.43242C1.12728 6.55716 5.09395 0.540527 11.8919 0.540527ZM7.05425 8.47336C7.05425 6.47765 8.25537 4.68016 10.0982 3.91565C11.9427 3.153 14.0644 3.57463 15.4737 4.98576C16.8848 6.39517 17.3065 8.51688 16.5438 10.3614C15.7795 12.2043 13.982 13.4054 11.9862 13.4054C10.6776 13.4071 9.42273 12.888 8.4971 11.9623C7.57151 11.0367 7.0524 9.78184 7.05408 8.47319L7.05425 8.47336Z" fill="black"/>
</svg>
