<svg width="18" height="18" viewBox="0 0 18 18" fill="none" xmlns="http://www.w3.org/2000/svg">
<g opacity="0.8">
<path fill-rule="evenodd" clip-rule="evenodd" d="M15.5744 -0.000141144H2.42555C1.08598 -0.000141144 0 1.08579 0 2.4254V15.5742C0 16.9138 1.08594 17.9998 2.42555 17.9998H8.9105L8.92156 11.5676H7.25046C7.03329 11.5676 6.85703 11.392 6.85619 11.1748L6.84818 9.10144C6.84734 8.88309 7.02413 8.70564 7.24249 8.70564H8.91055V6.70224C8.91055 4.37732 10.3305 3.11138 12.4045 3.11138H14.1063C14.324 3.11138 14.5007 3.28791 14.5007 3.50569V5.25396C14.5007 5.47166 14.3242 5.64814 14.1066 5.64827L13.0621 5.64876C11.9342 5.64876 11.7158 6.18472 11.7158 6.97128V8.70568H14.1942C14.4304 8.70568 14.6136 8.91188 14.5858 9.14645L14.34 11.2198C14.3165 11.4182 14.1482 11.5677 13.9485 11.5677H11.7269L11.7158 17.9999H15.5745C16.9141 17.9999 18 16.9139 18 15.5744V2.4254C18 1.08579 16.914 -0.000141144 15.5744 -0.000141144Z" fill="white"/>
</g>
</svg>
