<svg width="18" height="18" viewBox="0 0 18 18" fill="none" xmlns="http://www.w3.org/2000/svg">
<g opacity="0.8">
<path fill-rule="evenodd" clip-rule="evenodd" d="M15.5744 -0.00012207H2.42555C1.08598 -0.00012207 0 1.08581 0 2.42541V15.5743C0 16.9139 1.08594 17.9998 2.42555 17.9998H8.9105L8.92156 11.5676H7.25046C7.03329 11.5676 6.85703 11.392 6.85619 11.1748L6.84818 9.10146C6.84734 8.88311 7.02413 8.70565 7.24249 8.70565H8.91055V6.70226C8.91055 4.37734 10.3305 3.1114 12.4045 3.1114H14.1063C14.324 3.1114 14.5007 3.28793 14.5007 3.50571V5.25398C14.5007 5.47168 14.3242 5.64816 14.1066 5.64829L13.0621 5.64878C11.9342 5.64878 11.7158 6.18474 11.7158 6.9713V8.7057H14.1942C14.4304 8.7057 14.6136 8.9119 14.5858 9.14646L14.34 11.2198C14.3165 11.4182 14.1482 11.5677 13.9485 11.5677H11.7269L11.7158 17.9999H15.5745C16.9141 17.9999 18 16.9139 18 15.5744V2.42541C18 1.08581 16.914 -0.00012207 15.5744 -0.00012207Z" fill="white"/>
</g>
</svg>
