<svg width="24" height="24" viewBox="0 0 24 24" fill="none" xmlns="http://www.w3.org/2000/svg">
<g opacity="0.8">
<mask id="mask0_1025_62393" style="mask-type:luminance" maskUnits="userSpaceOnUse" x="3" y="2" width="18" height="19">
<path fill-rule="evenodd" clip-rule="evenodd" d="M6.62 10.7899C8.06 13.6199 10.38 15.9299 13.21 17.3799L15.41 15.1799C15.68 14.9099 16.08 14.8199 16.43 14.9399C17.55 15.3099 18.76 15.5099 20 15.5099C20.55 15.5099 21 15.9599 21 16.5099V19.9999C21 20.5499 20.55 20.9999 20 20.9999C10.61 20.9999 3 13.3899 3 3.99989C3 3.44989 3.45 2.99989 4 2.99989H7.5C8.05 2.99989 8.5 3.44989 8.5 3.99989C8.5 5.24989 8.7 6.44989 9.07 7.56989C9.18 7.91989 9.1 8.30989 8.82 8.58989L6.62 10.7899Z" fill="white"/>
</mask>
<g mask="url(#mask0_1025_62393)">
<rect x="-13" y="-13.0001" width="50" height="50" fill="black"/>
<mask id="mask1_1025_62393" style="mask-type:luminance" maskUnits="userSpaceOnUse" x="-13" y="-14" width="50" height="51">
<rect x="-13" y="-13.0001" width="50" height="50" fill="white"/>
</mask>
<g mask="url(#mask1_1025_62393)">
</g>
</g>
</g>
</svg>
