<svg width="26" height="24" viewBox="0 0 26 24" fill="none" xmlns="http://www.w3.org/2000/svg">
<mask id="mask0_2013_23580" style="mask-type:luminance" maskUnits="userSpaceOnUse" x="1" y="2" width="24" height="19">
<path fill-rule="evenodd" clip-rule="evenodd" d="M19.5845 3.63L21.3157 2C25.4684 6.05 25.4577 12.11 21.3157 16L19.5845 14.37C22.5264 11.19 22.5264 6.65 19.5845 3.63ZM9.55856 13C11.9048 13 13.8068 11.2091 13.8068 9C13.8068 6.79086 11.9048 5 9.55856 5C7.21231 5 5.31029 6.79086 5.31029 9C5.31029 11.2091 7.21231 13 9.55856 13ZM1.06201 19C1.06201 16.34 6.72284 15 9.55856 15C12.3943 15 18.0551 16.34 18.0551 19V21H1.06201V19ZM17.8002 5.36L16.0159 7.05C16.9081 8.23 16.9081 9.76 16.0159 10.94L17.8002 12.63C19.9456 10.61 19.9456 7.56 17.8002 5.36Z" fill="white"/>
</mask>
<g mask="url(#mask0_2013_23580)">
<rect x="-13.8069" y="-13" width="53.1034" height="50" fill="#FF0000"/>
<path opacity="0.4" fill-rule="evenodd" clip-rule="evenodd" d="M-13.8069 37H39.2966L-13.8069 -13V37Z" fill="white"/>
<ellipse opacity="0.4" cx="22.8345" cy="22" rx="16.4621" ry="15.5" fill="white"/>
</g>
</svg>
