<svg width="24" height="24" viewBox="0 0 24 24" fill="none" xmlns="http://www.w3.org/2000/svg">
<mask id="mask0_1025_62846" style="mask-type:luminance" maskUnits="userSpaceOnUse" x="1" y="2" width="22" height="19">
<path fill-rule="evenodd" clip-rule="evenodd" d="M18.44 3.63L20.07 2C23.98 6.05 23.97 12.11 20.07 16L18.44 14.37C21.21 11.19 21.21 6.65 18.44 3.63ZM9 13C11.2091 13 13 11.2091 13 9C13 6.79086 11.2091 5 9 5C6.79086 5 5 6.79086 5 9C5 11.2091 6.79086 13 9 13ZM1 19C1 16.34 6.33 15 9 15C11.67 15 17 16.34 17 19V21H1V19ZM16.76 5.36L15.08 7.05C15.92 8.23 15.92 9.76 15.08 10.94L16.76 12.63C18.78 10.61 18.78 7.56 16.76 5.36Z" fill="white"/>
</mask>
<g mask="url(#mask0_1025_62846)">
<rect x="-13" y="-13" width="50" height="50" fill="#FF0000"/>
<path opacity="0.4" fill-rule="evenodd" clip-rule="evenodd" d="M-13 37H37L-13 -13V37Z" fill="white"/>
<circle opacity="0.4" cx="21.5" cy="22" r="15.5" fill="white"/>
</g>
</svg>
