<svg width="168" height="38" viewBox="0 0 168 38" fill="none" xmlns="http://www.w3.org/2000/svg">
<rect x="0.5" y="1.39075" width="78.1273" height="36.1092" rx="7.5" stroke="#FF0000"/>
<path fill-rule="evenodd" clip-rule="evenodd" d="M39.4757 16.6845H41.6694V13.371H44.9593V11.1623H41.6694V7.84872H39.4757V11.1623H36.1858V13.371H39.4757V16.6845V16.6845ZM35.0892 26.6241C33.8827 26.6241 32.9065 27.6183 32.9065 28.8333C32.9065 30.0478 33.8827 31.042 35.0892 31.042C36.2957 31.042 37.2825 30.0478 37.2825 28.8333C37.2825 27.6183 36.2957 26.6241 35.0892 26.6241V26.6241ZM46.0559 26.6241C44.8499 26.6241 43.8736 27.6183 43.8736 28.8333C43.8736 30.0478 44.8499 31.042 46.0559 31.042C47.2624 31.042 48.2496 30.0478 48.2496 28.8333C48.2496 27.6183 47.2624 26.6241 46.0559 26.6241V26.6241ZM35.2755 23.035L35.3084 22.9022L36.2957 21.1019H44.4659C45.2884 21.1019 46.0125 20.6493 46.385 19.9643L50.6181 12.2224L48.71 11.1623H48.6991L47.4926 13.371L44.4659 18.8932H36.7671L36.6243 18.595L34.1679 13.371L33.1262 11.1623L32.095 8.95361H28.509V11.1623H30.7023L34.6503 19.545L33.1696 22.2505C32.9944 22.5597 32.8955 22.9244 32.8955 23.3111C32.8955 24.5255 33.8827 25.5198 35.0892 25.5198H48.2496V23.3111H35.5496C35.4073 23.3111 35.2755 23.1894 35.2755 23.035V23.035Z" fill="#FF0000"/>
<rect x="88.9364" y="1.39075" width="78.1273" height="36.1092" rx="7.5" stroke="#FF0000"/>
<path fill-rule="evenodd" clip-rule="evenodd" d="M133.237 9.00839C131.212 9.00839 129.268 9.9298 128 11.3859C126.731 9.9298 124.788 9.00839 122.764 9.00839C119.18 9.00839 116.364 11.7613 116.364 15.2649C116.364 19.5648 120.32 23.0684 126.312 28.3922L128 29.8823L129.687 28.3808C135.68 23.0684 139.636 19.5648 139.636 15.2649C139.636 11.7613 136.82 9.00839 133.237 9.00839V9.00839ZM128.116 26.6972L128 26.811L127.883 26.6972C122.344 21.7944 118.691 18.5524 118.691 15.2649C118.691 12.9898 120.436 11.2835 122.764 11.2835C124.555 11.2835 126.301 12.4097 126.918 13.9681H129.094C129.699 12.4097 131.444 11.2835 133.237 11.2835C135.564 11.2835 137.31 12.9898 137.31 15.2649C137.31 18.5524 133.655 21.7944 128.116 26.6972V26.6972Z" fill="#FF0000"/>
</svg>
