<svg width="168" height="38" viewBox="0 0 168 38" fill="none" xmlns="http://www.w3.org/2000/svg">
<rect x="0.5" y="1.30115" width="78.1273" height="36.1989" rx="7.5" stroke="#FF0000"/>
<path fill-rule="evenodd" clip-rule="evenodd" d="M39.4757 16.633H41.6694V13.3115H44.9593V11.0974H41.6694V7.77588H39.4757V11.0974H36.1858V13.3115H39.4757V16.633V16.633ZM35.0892 26.5966C33.8827 26.5966 32.9065 27.5932 32.9065 28.8112C32.9065 30.0285 33.8827 31.0252 35.0892 31.0252C36.2957 31.0252 37.2825 30.0285 37.2825 28.8112C37.2825 27.5932 36.2957 26.5966 35.0892 26.5966V26.5966ZM46.0559 26.5966C44.8499 26.5966 43.8736 27.5932 43.8736 28.8112C43.8736 30.0285 44.8499 31.0252 46.0559 31.0252C47.2624 31.0252 48.2496 30.0285 48.2496 28.8112C48.2496 27.5932 47.2624 26.5966 46.0559 26.5966V26.5966ZM35.2755 22.9988L35.3084 22.8657L36.2957 21.061H44.4659C45.2884 21.061 46.0125 20.6074 46.385 19.9208L50.6181 12.1601L48.71 11.0974H48.6991L47.4926 13.3115L44.4659 18.847H36.7671L36.6243 18.5481L34.1679 13.3115L33.1262 11.0974L32.095 8.88344H28.509V11.0974H30.7023L34.6503 19.5004L33.1696 22.2124C32.9944 22.5224 32.8955 22.8879 32.8955 23.2756C32.8955 24.493 33.8827 25.4896 35.0892 25.4896H48.2496V23.2756H35.5496C35.4073 23.2756 35.2755 23.1536 35.2755 22.9988V22.9988Z" fill="#FF0000"/>
<rect x="88.9364" y="1.30115" width="78.1273" height="36.1989" rx="7.5" stroke="#FF0000"/>
<path fill-rule="evenodd" clip-rule="evenodd" d="M133.237 8.93835C131.212 8.93835 129.268 9.86199 128 11.3216C126.731 9.86199 124.788 8.93835 122.764 8.93835C119.18 8.93835 116.364 11.6979 116.364 15.21C116.364 19.5203 120.32 23.0324 126.312 28.3689L128 29.8627L129.687 28.3575C135.68 23.0324 139.636 19.5203 139.636 15.21C139.636 11.6979 136.82 8.93835 133.237 8.93835V8.93835ZM128.116 26.6699L128 26.7839L127.883 26.6699C122.344 21.7552 118.691 18.5054 118.691 15.21C118.691 12.9294 120.436 11.2189 122.764 11.2189C124.555 11.2189 126.301 12.3478 126.918 13.91H129.094C129.699 12.3478 131.444 11.2189 133.237 11.2189C135.564 11.2189 137.31 12.9294 137.31 15.21C137.31 18.5054 133.655 21.7552 128.116 26.6699V26.6699Z" fill="#FF0000"/>
</svg>
