<svg width="169" height="38" viewBox="0 0 169 38" fill="none" xmlns="http://www.w3.org/2000/svg">
<rect x="0.5" y="1.03223" width="78.5394" height="36.4678" rx="7.5" stroke="#FF0000"/>
<path fill-rule="evenodd" clip-rule="evenodd" d="M39.6814 16.4786H41.8865V13.133H45.1935V10.903H41.8865V7.55743H39.6814V10.903H36.3744V13.133H39.6814V16.4786V16.4786ZM35.2721 26.5142C34.0593 26.5142 33.0779 27.5181 33.0779 28.7448C33.0779 29.971 34.0593 30.9748 35.2721 30.9748C36.4848 30.9748 37.4767 29.971 37.4767 28.7448C37.4767 27.5181 36.4848 26.5142 35.2721 26.5142V26.5142ZM46.2958 26.5142C45.0836 26.5142 44.1022 27.5181 44.1022 28.7448C44.1022 29.971 45.0836 30.9748 46.2958 30.9748C47.5086 30.9748 48.501 29.971 48.501 28.7448C48.501 27.5181 47.5086 26.5142 46.2958 26.5142V26.5142ZM35.4593 22.8904L35.4924 22.7564L36.4848 20.9386H44.6976C45.5243 20.9386 46.2522 20.4817 46.6266 19.7901L50.8818 11.9733L48.9638 10.903H48.9528L47.74 13.133L44.6976 18.7086H36.9587L36.8151 18.4075L34.3459 13.133L33.2988 10.903L32.2622 8.673H28.6576V10.903H30.8622L34.8308 19.3667L33.3425 22.0983C33.1663 22.4106 33.0669 22.7787 33.0669 23.1692C33.0669 24.3954 34.0593 25.3992 35.2721 25.3992H48.501V23.1692H35.7349C35.5918 23.1692 35.4593 23.0463 35.4593 22.8904V22.8904Z" fill="#FF0000"/>
<rect x="89.397" y="1.03223" width="78.5394" height="36.4678" rx="7.5" stroke="#FF0000"/>
<path fill-rule="evenodd" clip-rule="evenodd" d="M133.931 8.7283C131.895 8.7283 129.941 9.65862 128.667 11.1287C127.391 9.65862 125.438 8.7283 123.403 8.7283C119.8 8.7283 116.97 11.5078 116.97 15.0452C116.97 19.3867 120.947 22.9242 126.97 28.2993L128.667 29.8039L130.362 28.2879C136.387 22.9242 140.364 19.3867 140.364 15.0452C140.364 11.5078 137.533 8.7283 133.931 8.7283V8.7283ZM128.783 26.588L128.667 26.7029L128.549 26.588C122.982 21.6378 119.309 18.3645 119.309 15.0452C119.309 12.7482 121.064 11.0254 123.403 11.0254C125.204 11.0254 126.959 12.1624 127.579 13.7359H129.766C130.374 12.1624 132.129 11.0254 133.931 11.0254C136.27 11.0254 138.025 12.7482 138.025 15.0452C138.025 18.3645 134.351 21.6378 128.783 26.588V26.588Z" fill="#FF0000"/>
</svg>
