<svg width="169" height="38" viewBox="0 0 169 38" fill="none" xmlns="http://www.w3.org/2000/svg">
<rect x="0.5" y="0.942627" width="78.5394" height="36.5574" rx="7.5" stroke="#FF0000"/>
<path fill-rule="evenodd" clip-rule="evenodd" d="M39.6812 16.4271H41.8864V13.0735H45.1934V10.8382H41.8864V7.48462H39.6812V10.8382H36.3743V13.0735H39.6812V16.4271V16.4271ZM35.2719 26.4868C34.0592 26.4868 33.0778 27.493 33.0778 28.7227C33.0778 29.9518 34.0592 30.958 35.2719 30.958C36.4847 30.958 37.4766 29.9518 37.4766 28.7227C37.4766 27.493 36.4847 26.4868 35.2719 26.4868V26.4868ZM46.2957 26.4868C45.0835 26.4868 44.1021 27.493 44.1021 28.7227C44.1021 29.9518 45.0835 30.958 46.2957 30.958C47.5085 30.958 48.5009 29.9518 48.5009 28.7227C48.5009 27.493 47.5085 26.4868 46.2957 26.4868V26.4868ZM35.4592 22.8543L35.4923 22.7199L36.4847 20.8978H44.6975C45.5242 20.8978 46.2521 20.4398 46.6265 19.7466L50.8817 11.9111L48.9637 10.8382H48.9527L47.7399 13.0735L44.6975 18.6625H36.9586L36.815 18.3607L34.3458 13.0735L33.2987 10.8382L32.2621 8.60285H28.6575V10.8382H30.8621L34.8307 19.3221L33.3423 22.0603C33.1662 22.3733 33.0668 22.7423 33.0668 23.1337C33.0668 24.3628 34.0592 25.3691 35.2719 25.3691H48.5009V23.1337H35.7347C35.5917 23.1337 35.4592 23.0105 35.4592 22.8543V22.8543Z" fill="#FF0000"/>
<rect x="89.397" y="0.942627" width="78.5394" height="36.5574" rx="7.5" stroke="#FF0000"/>
<path fill-rule="evenodd" clip-rule="evenodd" d="M133.931 8.65833C131.895 8.65833 129.941 9.59086 128.667 11.0645C127.391 9.59086 125.438 8.65833 123.403 8.65833C119.8 8.65833 116.97 11.4444 116.97 14.9904C116.97 19.3422 120.947 22.8882 126.97 28.2762L128.667 29.7844L130.363 28.2647C136.387 22.8882 140.364 19.3422 140.364 14.9904C140.364 11.4444 137.533 8.65833 133.931 8.65833V8.65833ZM128.783 26.5608L128.667 26.6759L128.549 26.5608C122.982 21.5988 119.309 18.3176 119.309 14.9904C119.309 12.6878 121.064 10.9609 123.403 10.9609C125.204 10.9609 126.959 12.1007 127.579 13.6779H129.766C130.374 12.1007 132.129 10.9609 133.931 10.9609C136.27 10.9609 138.025 12.6878 138.025 14.9904C138.025 18.3176 134.351 21.5988 128.783 26.5608V26.5608Z" fill="#FF0000"/>
</svg>
