<svg width="169" height="38" viewBox="0 0 169 38" fill="none" xmlns="http://www.w3.org/2000/svg">
<rect x="0.5" y="1.21143" width="78.5394" height="36.2885" rx="7.5" stroke="#FF0000"/>
<path fill-rule="evenodd" clip-rule="evenodd" d="M39.6813 16.5815H41.8865V13.2519H45.1935V11.0326H41.8865V7.703H39.6813V11.0326H36.3744V13.2519H39.6813V16.5815V16.5815ZM35.2721 26.5691C34.0593 26.5691 33.0779 27.5681 33.0779 28.789C33.0779 30.0093 34.0593 31.0083 35.2721 31.0083C36.4848 31.0083 37.4767 30.0093 37.4767 28.789C37.4767 27.5681 36.4848 26.5691 35.2721 26.5691V26.5691ZM46.2958 26.5691C45.0836 26.5691 44.1022 27.5681 44.1022 28.789C44.1022 30.0093 45.0836 31.0083 46.2958 31.0083C47.5086 31.0083 48.501 30.0093 48.501 28.789C48.501 27.5681 47.5086 26.5691 46.2958 26.5691V26.5691ZM35.4593 22.9627L35.4924 22.8292L36.4848 21.0202H44.6976C45.5243 21.0202 46.2522 20.5654 46.6266 19.8771L50.8818 12.0978L48.9638 11.0326H48.9528L47.74 13.2519L44.6976 18.8008H36.9587L36.8151 18.5012L34.3459 13.2519L33.2988 11.0326L32.2622 8.81323H28.6576V11.0326H30.8622L34.8308 19.4557L33.3424 22.1743C33.1663 22.4851 33.0669 22.8515 33.0669 23.2401C33.0669 24.4604 34.0593 25.4594 35.2721 25.4594H48.501V23.2401H35.7349C35.5918 23.2401 35.4593 23.1178 35.4593 22.9627V22.9627Z" fill="#FF0000"/>
<rect x="89.397" y="1.21143" width="78.5394" height="36.2885" rx="7.5" stroke="#FF0000"/>
<path fill-rule="evenodd" clip-rule="evenodd" d="M133.931 8.86829C131.895 8.86829 129.941 9.79415 128.667 11.2572C127.391 9.79415 125.438 8.86829 123.403 8.86829C119.8 8.86829 116.97 11.6344 116.97 15.155C116.97 19.4757 120.947 22.9963 126.97 28.3457L128.667 29.8431L130.362 28.3343C136.387 22.9963 140.364 19.4757 140.364 15.155C140.364 11.6344 137.533 8.86829 133.931 8.86829V8.86829ZM128.783 26.6426L128.667 26.7569L128.549 26.6426C122.982 21.7161 119.309 18.4584 119.309 15.155C119.309 12.8689 121.064 11.1544 123.403 11.1544C125.204 11.1544 126.959 12.286 127.579 13.8519H129.766C130.374 12.286 132.129 11.1544 133.931 11.1544C136.27 11.1544 138.025 12.8689 138.025 15.155C138.025 18.4584 134.351 21.7161 128.783 26.6426V26.6426Z" fill="#FF0000"/>
</svg>
