<svg width="169" height="38" viewBox="0 0 169 38" fill="none" xmlns="http://www.w3.org/2000/svg">
<rect x="0.5" y="1.21149" width="78.5394" height="36.2885" rx="7.5" stroke="#FF0000"/>
<path fill-rule="evenodd" clip-rule="evenodd" d="M39.6814 16.5816H41.8865V13.252H45.1935V11.0326H41.8865V7.70308H39.6814V11.0326H36.3744V13.252H39.6814V16.5816V16.5816ZM35.2721 26.5692C34.0593 26.5692 33.0779 27.5682 33.0779 28.7891C33.0779 30.0094 34.0593 31.0084 35.2721 31.0084C36.4848 31.0084 37.4767 30.0094 37.4767 28.7891C37.4767 27.5682 36.4848 26.5692 35.2721 26.5692V26.5692ZM46.2958 26.5692C45.0836 26.5692 44.1022 27.5682 44.1022 28.7891C44.1022 30.0094 45.0836 31.0084 46.2958 31.0084C47.5086 31.0084 48.501 30.0094 48.501 28.7891C48.501 27.5682 47.5086 26.5692 46.2958 26.5692V26.5692ZM35.4593 22.9627L35.4924 22.8293L36.4848 21.0202H44.6976C45.5243 21.0202 46.2522 20.5655 46.6266 19.8772L50.8818 12.0978L48.9638 11.0326H48.9528L47.74 13.252L44.6976 18.8009H36.9587L36.8151 18.5012L34.3459 13.252L33.2988 11.0326L32.2622 8.81331H28.6576V11.0326H30.8622L34.8308 19.4558L33.3425 22.1744C33.1663 22.4852 33.0669 22.8515 33.0669 23.2401C33.0669 24.4604 34.0593 25.4595 35.2721 25.4595H48.501V23.2401H35.7349C35.5918 23.2401 35.4593 23.1178 35.4593 22.9627V22.9627Z" fill="#FF0000"/>
<rect x="89.397" y="1.21149" width="78.5394" height="36.2885" rx="7.5" stroke="#FF0000"/>
<path fill-rule="evenodd" clip-rule="evenodd" d="M133.931 8.86835C131.895 8.86835 129.941 9.79421 128.667 11.2573C127.391 9.79421 125.438 8.86835 123.403 8.86835C119.8 8.86835 116.97 11.6345 116.97 15.1551C116.97 19.4758 120.947 22.9963 126.97 28.3458L128.667 29.8431L130.363 28.3343C136.387 22.9963 140.364 19.4758 140.364 15.1551C140.364 11.6345 137.533 8.86835 133.931 8.86835V8.86835ZM128.783 26.6426L128.667 26.7569L128.549 26.6426C122.982 21.7161 119.309 18.4585 119.309 15.1551C119.309 12.869 121.064 11.1544 123.403 11.1544C125.204 11.1544 126.959 12.286 127.579 13.852H129.766C130.374 12.286 132.129 11.1544 133.931 11.1544C136.27 11.1544 138.025 12.869 138.025 15.1551C138.025 18.4585 134.351 21.7161 128.783 26.6426V26.6426Z" fill="#FF0000"/>
</svg>
