<svg width="169" height="38" viewBox="0 0 169 38" fill="none" xmlns="http://www.w3.org/2000/svg">
<rect x="0.5" y="1.03223" width="78.5394" height="36.4678" rx="7.5" stroke="#FF0000"/>
<path fill-rule="evenodd" clip-rule="evenodd" d="M39.6812 16.4786H41.8864V13.133H45.1934V10.903H41.8864V7.55743H39.6812V10.903H36.3743V13.133H39.6812V16.4786V16.4786ZM35.2719 26.5142C34.0592 26.5142 33.0778 27.5181 33.0778 28.7448C33.0778 29.971 34.0592 30.9748 35.2719 30.9748C36.4847 30.9748 37.4766 29.971 37.4766 28.7448C37.4766 27.5181 36.4847 26.5142 35.2719 26.5142V26.5142ZM46.2957 26.5142C45.0835 26.5142 44.1021 27.5181 44.1021 28.7448C44.1021 29.971 45.0835 30.9748 46.2957 30.9748C47.5085 30.9748 48.5009 29.971 48.5009 28.7448C48.5009 27.5181 47.5085 26.5142 46.2957 26.5142V26.5142ZM35.4592 22.8904L35.4923 22.7564L36.4847 20.9386H44.6975C45.5242 20.9386 46.2521 20.4817 46.6265 19.7901L50.8817 11.9733L48.9637 10.903H48.9527L47.7399 13.133L44.6975 18.7086H36.9586L36.815 18.4075L34.3458 13.133L33.2987 10.903L32.2621 8.673H28.6575V10.903H30.8621L34.8307 19.3667L33.3423 22.0983C33.1662 22.4106 33.0668 22.7787 33.0668 23.1692C33.0668 24.3954 34.0592 25.3992 35.2719 25.3992H48.5009V23.1692H35.7347C35.5917 23.1692 35.4592 23.0463 35.4592 22.8904V22.8904Z" fill="#FF0000"/>
<rect x="89.397" y="1.03223" width="78.5394" height="36.4678" rx="7.5" stroke="#FF0000"/>
<path fill-rule="evenodd" clip-rule="evenodd" d="M133.931 8.72827C131.895 8.72827 129.941 9.65859 128.667 11.1287C127.391 9.65859 125.438 8.72827 123.403 8.72827C119.8 8.72827 116.97 11.5077 116.97 15.0452C116.97 19.3867 120.947 22.9242 126.97 28.2993L128.667 29.8039L130.363 28.2878C136.387 22.9242 140.364 19.3867 140.364 15.0452C140.364 11.5077 137.533 8.72827 133.931 8.72827V8.72827ZM128.783 26.588L128.667 26.7028L128.549 26.588C122.982 21.6378 119.309 18.3645 119.309 15.0452C119.309 12.7481 121.064 11.0253 123.403 11.0253C125.204 11.0253 126.959 12.1624 127.579 13.7359H129.766C130.374 12.1624 132.129 11.0253 133.931 11.0253C136.27 11.0253 138.025 12.7481 138.025 15.0452C138.025 18.3645 134.351 21.6378 128.783 26.588V26.588Z" fill="#FF0000"/>
</svg>
