<svg width="168" height="38" viewBox="0 0 168 38" fill="none" xmlns="http://www.w3.org/2000/svg">
<rect x="0.5" y="1.12183" width="78.1273" height="36.3782" rx="7.5" stroke="#FF0000"/>
<path fill-rule="evenodd" clip-rule="evenodd" d="M39.4757 16.5301H41.6695V13.1925H44.9593V10.9678H41.6695V7.63025H39.4757V10.9678H36.1859V13.1925H39.4757V16.5301V16.5301ZM35.0893 26.5417C33.8828 26.5417 32.9065 27.5431 32.9065 28.7669C32.9065 29.9902 33.8828 30.9916 35.0893 30.9916C36.2958 30.9916 37.2825 29.9902 37.2825 28.7669C37.2825 27.5431 36.2958 26.5417 35.0893 26.5417V26.5417ZM46.0559 26.5417C44.85 26.5417 43.8737 27.5431 43.8737 28.7669C43.8737 29.9902 44.85 30.9916 46.0559 30.9916C47.2624 30.9916 48.2497 29.9902 48.2497 28.7669C48.2497 27.5431 47.2624 26.5417 46.0559 26.5417V26.5417ZM35.2755 22.9266L35.3085 22.7928L36.2958 20.9794H44.466C45.2884 20.9794 46.0125 20.5236 46.385 19.8337L50.6182 12.0356L48.7101 10.9678H48.6991L47.4926 13.1925L44.466 18.7548H36.7672L36.6243 18.4544L34.1679 13.1925L33.1263 10.9678L32.095 8.74315H28.5091V10.9678H30.7023L34.6503 19.4112L33.1697 22.1363C32.9944 22.4479 32.8955 22.8151 32.8955 23.2047C32.8955 24.4279 33.8828 25.4293 35.0893 25.4293H48.2497V23.2047H35.5497C35.4074 23.2047 35.2755 23.0821 35.2755 22.9266V22.9266Z" fill="#FF0000"/>
<rect x="88.9364" y="1.12183" width="78.1273" height="36.3782" rx="7.5" stroke="#FF0000"/>
<path fill-rule="evenodd" clip-rule="evenodd" d="M133.237 8.79834C131.212 8.79834 129.268 9.72643 128 11.193C126.731 9.72643 124.788 8.79834 122.764 8.79834C119.18 8.79834 116.364 11.5711 116.364 15.1002C116.364 19.4313 120.32 22.9603 126.312 28.3226L128 29.8236L129.687 28.3111C135.68 22.9603 139.636 19.4313 139.636 15.1002C139.636 11.5711 136.82 8.79834 133.237 8.79834V8.79834ZM128.116 26.6153L128 26.7299L127.883 26.6153C122.344 21.677 118.691 18.4115 118.691 15.1002C118.691 12.8086 120.436 11.0899 122.764 11.0899C124.555 11.0899 126.301 12.2242 126.918 13.794H129.094C129.699 12.2242 131.444 11.0899 133.237 11.0899C135.564 11.0899 137.31 12.8086 137.31 15.1002C137.31 18.4115 133.655 21.677 128.116 26.6153V26.6153Z" fill="#FF0000"/>
</svg>
