<svg width="168" height="38" viewBox="0 0 168 38" fill="none" xmlns="http://www.w3.org/2000/svg">
<rect x="0.5" y="1.39075" width="78.1273" height="36.1092" rx="7.5" stroke="#FF0000"/>
<path fill-rule="evenodd" clip-rule="evenodd" d="M39.4757 16.6846H41.6695V13.371H44.9593V11.1623H41.6695V7.84875H39.4757V11.1623H36.1859V13.371H39.4757V16.6846V16.6846ZM35.0893 26.6241C33.8828 26.6241 32.9065 27.6184 32.9065 28.8334C32.9065 30.0478 33.8828 31.042 35.0893 31.042C36.2958 31.042 37.2825 30.0478 37.2825 28.8334C37.2825 27.6184 36.2958 26.6241 35.0893 26.6241V26.6241ZM46.0559 26.6241C44.85 26.6241 43.8737 27.6184 43.8737 28.8334C43.8737 30.0478 44.85 31.042 46.0559 31.042C47.2624 31.042 48.2497 30.0478 48.2497 28.8334C48.2497 27.6184 47.2624 26.6241 46.0559 26.6241V26.6241ZM35.2755 23.035L35.3085 22.9023L36.2958 21.1019H44.466C45.2884 21.1019 46.0125 20.6493 46.385 19.9644L50.6182 12.2224L48.7101 11.1623H48.6991L47.4926 13.371L44.466 18.8932H36.7672L36.6243 18.595L34.1679 13.371L33.1263 11.1623L32.095 8.95364H28.5091V11.1623H30.7023L34.6503 19.545L33.1697 22.2505C32.9944 22.5598 32.8955 22.9244 32.8955 23.3111C32.8955 24.5256 33.8828 25.5198 35.0893 25.5198H48.2497V23.3111H35.5497C35.4074 23.3111 35.2755 23.1894 35.2755 23.035V23.035Z" fill="#FF0000"/>
<rect x="88.9364" y="1.39075" width="78.1273" height="36.1092" rx="7.5" stroke="#FF0000"/>
<path fill-rule="evenodd" clip-rule="evenodd" d="M133.237 9.00842C131.212 9.00842 129.268 9.92983 128 11.3859C126.731 9.92983 124.788 9.00842 122.764 9.00842C119.18 9.00842 116.364 11.7613 116.364 15.2649C116.364 19.5648 120.32 23.0685 126.312 28.3922L128 29.8824L129.687 28.3808C135.68 23.0685 139.636 19.5648 139.636 15.2649C139.636 11.7613 136.82 9.00842 133.237 9.00842V9.00842ZM128.116 26.6972L128 26.811L127.883 26.6972C122.344 21.7944 118.691 18.5524 118.691 15.2649C118.691 12.9898 120.436 11.2835 122.764 11.2835C124.555 11.2835 126.301 12.4097 126.918 13.9681H129.094C129.699 12.4097 131.444 11.2835 133.237 11.2835C135.564 11.2835 137.31 12.9898 137.31 15.2649C137.31 18.5524 133.655 21.7944 128.116 26.6972V26.6972Z" fill="#FF0000"/>
</svg>
