<svg width="24" height="24" viewBox="0 0 24 24" fill="none" xmlns="http://www.w3.org/2000/svg">
<path opacity="0.8" fill-rule="evenodd" clip-rule="evenodd" d="M14.874 16.6607V19.4866C14.874 20.0848 14.6691 20.3839 14.2595 20.3839C14.0179 20.3839 13.7815 20.2857 13.5504 20.0893V16.058C13.7815 15.8616 14.0179 15.7634 14.2595 15.7634C14.6691 15.7634 14.874 16.0625 14.874 16.6607ZM20.1996 16.6741V17.2902H18.7815V16.6741C18.7815 16.067 19.0179 15.7634 19.4905 15.7634C19.9632 15.7634 20.1996 16.067 20.1996 16.6741ZM4.97899 13.7545H6.66492V12.4955H1.74895V13.7545H3.40336V21.375H4.97899V13.7545ZM9.51681 21.375H10.9191V14.7589H9.51681V19.8214C9.20168 20.1964 8.90231 20.3839 8.6187 20.3839C8.42962 20.3839 8.31933 20.2902 8.28781 20.1027C8.27731 20.0759 8.27206 19.9196 8.27206 19.6339V14.7589H6.86975V19.9955C6.86975 20.433 6.91176 20.7589 6.9958 20.9732C7.12185 21.3036 7.42647 21.4687 7.90966 21.4687C8.41387 21.4687 8.94958 21.1964 9.51681 20.6518V21.375ZM16.2763 19.3929V16.7545C16.2763 16.1027 16.229 15.6607 16.1345 15.4286C15.9559 14.9286 15.583 14.6786 15.0158 14.6786C14.4905 14.6786 14.0021 14.9196 13.5504 15.4018V12.4955H12.1481V21.375H13.5504V20.7321C14.0231 21.2232 14.5116 21.4687 15.0158 21.4687C15.583 21.4687 15.9559 21.2232 16.1345 20.7321C16.229 20.4911 16.2763 20.0446 16.2763 19.3929ZM21.6019 19.2589V19.0848H20.1681C20.1681 19.5402 20.1576 19.8125 20.1366 19.9018C20.063 20.2232 19.8529 20.3839 19.5063 20.3839C19.0231 20.3839 18.7815 20.0759 18.7815 19.4598V18.2946H21.6019V16.9152C21.6019 16.2098 21.4601 15.692 21.1765 15.3616C20.7668 14.9062 20.2101 14.6786 19.5063 14.6786C18.792 14.6786 18.23 14.9062 17.8204 15.3616C17.5263 15.692 17.3792 16.2098 17.3792 16.9152V19.2321C17.3792 19.9375 17.5315 20.4554 17.8361 20.7857C18.2458 21.2411 18.813 21.4687 19.5378 21.4687C20.2941 21.4687 20.8613 21.2321 21.2395 20.7589C21.4286 20.5179 21.5389 20.2768 21.5704 20.0357C21.5914 19.9554 21.6019 19.6964 21.6019 19.2589ZM12.0221 7.03125V4.21875C12.0221 3.60267 11.7962 3.29464 11.3445 3.29464C10.8929 3.29464 10.667 3.60267 10.667 4.21875V7.03125C10.667 7.65625 10.8929 7.96875 11.3445 7.96875C11.7962 7.96875 12.0221 7.65625 12.0221 7.03125ZM23.3508 17.0893C23.3508 19.1786 23.2143 20.7411 22.9412 21.7768C22.7941 22.3036 22.4895 22.7455 22.0273 23.1027C21.5651 23.4598 21.0294 23.6652 20.4202 23.7187C18.4874 23.9062 15.5725 24 11.6754 24C7.77834 24 4.86346 23.9062 2.93067 23.7187C2.32143 23.6652 1.78309 23.4598 1.31565 23.1027C0.848212 22.7455 0.546219 22.3036 0.409664 21.7768C0.136553 20.7768 0 19.2143 0 17.0893C0 15 0.136553 13.4375 0.409664 12.4018C0.556723 11.875 0.861342 11.433 1.32353 11.0759C1.78572 10.7187 2.32668 10.5089 2.94643 10.4464C4.86871 10.2679 7.77834 10.1786 11.6754 10.1786C15.5725 10.1786 18.4874 10.2679 20.4202 10.4464C21.0294 10.5089 21.5678 10.7187 22.0352 11.0759C22.5026 11.433 22.8046 11.875 22.9412 12.4018C23.2143 13.4018 23.3508 14.9643 23.3508 17.0893ZM7.62605 0H9.23319L7.32668 5.34375V8.97321H5.75105V5.34375C5.60399 4.68303 5.28362 3.73661 4.78992 2.50446C4.40126 1.58482 4.05988 0.750004 3.76576 0H5.43592L6.55462 3.52232L7.62605 0ZM13.4559 4.45982V6.80357C13.4559 7.52679 13.3088 8.05357 13.0147 8.38393C12.626 8.83929 12.0693 9.06696 11.3445 9.06696C10.6408 9.06696 10.0893 8.83929 9.69013 8.38393C9.39601 8.04464 9.24895 7.51786 9.24895 6.80357V4.45982C9.24895 3.74553 9.39601 3.22322 9.69013 2.89286C10.0893 2.4375 10.6408 2.20982 11.3445 2.20982C12.0693 2.20982 12.626 2.4375 13.0147 2.89286C13.3088 3.22322 13.4559 3.74553 13.4559 4.45982ZM18.7342 2.29018V8.97321H17.3004V8.23661C16.7437 8.79018 16.2027 9.06696 15.6775 9.06696C15.1943 9.06696 14.8845 8.90179 14.7479 8.57143C14.6639 8.35714 14.6218 8.02232 14.6218 7.56696V2.29018H16.0557V7.20536C16.0557 7.5 16.0609 7.65625 16.0714 7.67411C16.1029 7.87054 16.2132 7.96875 16.4023 7.96875C16.6859 7.96875 16.9853 7.77679 17.3004 7.39286V2.29018H18.7342Z" fill="white"/>
</svg>
