<svg width="24" height="24" viewBox="0 0 24 24" fill="none" xmlns="http://www.w3.org/2000/svg">
<path opacity="0.8" fill-rule="evenodd" clip-rule="evenodd" d="M14.874 16.6606V19.4865C14.874 20.0847 14.6691 20.3838 14.2595 20.3838C14.0179 20.3838 13.7815 20.2856 13.5504 20.0892V16.0579C13.7815 15.8615 14.0179 15.7633 14.2595 15.7633C14.6691 15.7633 14.874 16.0624 14.874 16.6606ZM20.1996 16.674V17.2901H18.7815V16.674C18.7815 16.0669 19.0179 15.7633 19.4905 15.7633C19.9632 15.7633 20.1996 16.0669 20.1996 16.674ZM4.97899 13.7544H6.66492V12.4954H1.74895V13.7544H3.40336V21.3749H4.97899V13.7544ZM9.51681 21.3749H10.9191V14.7588H9.51681V19.8213C9.20168 20.1963 8.90231 20.3838 8.6187 20.3838C8.42962 20.3838 8.31933 20.2901 8.28781 20.1026C8.27731 20.0758 8.27206 19.9196 8.27206 19.6338V14.7588H6.86975V19.9954C6.86975 20.4329 6.91176 20.7588 6.9958 20.9731C7.12185 21.3035 7.42647 21.4687 7.90966 21.4687C8.41387 21.4687 8.94958 21.1963 9.51681 20.6517V21.3749ZM16.2763 19.3928V16.7544C16.2763 16.1026 16.229 15.6606 16.1345 15.4285C15.9559 14.9285 15.583 14.6785 15.0158 14.6785C14.4905 14.6785 14.0021 14.9195 13.5504 15.4017V12.4954H12.1481V21.3749H13.5504V20.7321C14.0231 21.2231 14.5116 21.4687 15.0158 21.4687C15.583 21.4687 15.9559 21.2231 16.1345 20.7321C16.229 20.491 16.2763 20.0446 16.2763 19.3928ZM21.6019 19.2588V19.0847H20.1681C20.1681 19.5401 20.1576 19.8124 20.1366 19.9017C20.063 20.2231 19.8529 20.3838 19.5063 20.3838C19.0231 20.3838 18.7815 20.0758 18.7815 19.4597V18.2946H21.6019V16.9151C21.6019 16.2097 21.4601 15.6919 21.1765 15.3615C20.7668 14.9062 20.2101 14.6785 19.5063 14.6785C18.792 14.6785 18.23 14.9062 17.8204 15.3615C17.5263 15.6919 17.3792 16.2097 17.3792 16.9151V19.2321C17.3792 19.9374 17.5315 20.4553 17.8361 20.7856C18.2458 21.241 18.813 21.4687 19.5378 21.4687C20.2941 21.4687 20.8613 21.2321 21.2395 20.7588C21.4286 20.5178 21.5389 20.2767 21.5704 20.0356C21.5914 19.9553 21.6019 19.6963 21.6019 19.2588ZM12.0221 7.03116V4.21866C12.0221 3.60259 11.7962 3.29455 11.3445 3.29455C10.8929 3.29455 10.667 3.60259 10.667 4.21866V7.03116C10.667 7.65616 10.8929 7.96866 11.3445 7.96866C11.7962 7.96866 12.0221 7.65616 12.0221 7.03116ZM23.3508 17.0892C23.3508 19.1785 23.2143 20.741 22.9412 21.7767C22.7941 22.3035 22.4895 22.7454 22.0273 23.1026C21.5651 23.4597 21.0294 23.6651 20.4202 23.7187C18.4874 23.9062 15.5725 23.9999 11.6754 23.9999C7.77834 23.9999 4.86346 23.9062 2.93067 23.7187C2.32143 23.6651 1.78309 23.4597 1.31565 23.1026C0.848212 22.7454 0.546219 22.3035 0.409664 21.7767C0.136553 20.7767 0 19.2142 0 17.0892C0 14.9999 0.136553 13.4374 0.409664 12.4017C0.556723 11.8749 0.861342 11.4329 1.32353 11.0758C1.78572 10.7187 2.32668 10.5088 2.94643 10.4463C4.86871 10.2678 7.77834 10.1785 11.6754 10.1785C15.5725 10.1785 18.4874 10.2678 20.4202 10.4463C21.0294 10.5088 21.5678 10.7187 22.0352 11.0758C22.5026 11.4329 22.8046 11.8749 22.9412 12.4017C23.2143 13.4017 23.3508 14.9642 23.3508 17.0892ZM7.62605 -8.7738e-05H9.23319L7.32668 5.34366V8.97313H5.75105V5.34366C5.60399 4.68294 5.28362 3.73653 4.78992 2.50438C4.40126 1.58473 4.05988 0.749916 3.76576 -8.7738e-05H5.43592L6.55462 3.52223L7.62605 -8.7738e-05ZM13.4559 4.45973V6.80348C13.4559 7.5267 13.3088 8.05348 13.0147 8.38384C12.626 8.8392 12.0693 9.06688 11.3445 9.06688C10.6408 9.06688 10.0893 8.8392 9.69013 8.38384C9.39601 8.04455 9.24895 7.51777 9.24895 6.80348V4.45973C9.24895 3.74544 9.39601 3.22313 9.69013 2.89277C10.0893 2.43741 10.6408 2.20973 11.3445 2.20973C12.0693 2.20973 12.626 2.43741 13.0147 2.89277C13.3088 3.22313 13.4559 3.74544 13.4559 4.45973ZM18.7342 2.29009V8.97313H17.3004V8.23652C16.7437 8.79009 16.2027 9.06688 15.6775 9.06688C15.1943 9.06688 14.8845 8.9017 14.7479 8.57134C14.6639 8.35705 14.6218 8.02223 14.6218 7.56688V2.29009H16.0557V7.20527C16.0557 7.49991 16.0609 7.65616 16.0714 7.67402C16.1029 7.87045 16.2132 7.96866 16.4023 7.96866C16.6859 7.96866 16.9853 7.7767 17.3004 7.39277V2.29009H18.7342Z" fill="white"/>
</svg>
